<?xml version="1.0" encoding="UTF-8" standalone="no"?>
<svg
   width="456"
   height="456"
   viewBox="0 0 456 456"
   version="1.1"
   xml:space="preserve"
   style="fill-rule:evenodd;clip-rule:evenodd;stroke-linejoin:round;stroke-miterlimit:2;"
   id="svg31"
   sodipodi:docname="hpi-iconfg.svg"
   inkscape:version="1.1.2 (0a00cf5339, 2022-02-04, custom)"
   xmlns:inkscape="http://www.inkscape.org/namespaces/inkscape"
   xmlns:sodipodi="http://sodipodi.sourceforge.net/DTD/sodipodi-0.dtd"
   xmlns="http://www.w3.org/2000/svg"
   xmlns:svg="http://www.w3.org/2000/svg"><defs
   id="defs35" /><sodipodi:namedview
   id="namedview33"
   pagecolor="#505050"
   bordercolor="#eeeeee"
   borderopacity="1"
   inkscape:pageshadow="0"
   inkscape:pageopacity="0"
   inkscape:pagecheckerboard="0"
   showgrid="false"
   showguides="true"
   inkscape:guide-bbox="true"
   inkscape:zoom="2.3493607"
   inkscape:cx="282.41725"
   inkscape:cy="221.33681"
   inkscape:window-width="1280"
   inkscape:window-height="953"
   inkscape:window-x="-8"
   inkscape:window-y="-8"
   inkscape:window-maximized="1"
   inkscape:current-layer="svg31" />
    
    
    
    
<g
   aria-label="HPi"
   id="text3033"
   style="font-style:italic;font-weight:bold;font-size:96px;line-height:1.25;font-family:Auritra;-inkscape-font-specification:'Auritra, Bold Italic';fill:#ffffff"><path
     d="m 219.0303,192.86102 c -3.648,0 -6.912,2.112 -7.392,4.512 l -5.76,27.072 h -12.48 c -0.96,0 -2.016,-0.096 -3.264,-0.096 -9.12,0 -24.768,1.056 -36.288,8.928 l 7.68,-35.904 c 0.48,-2.4 -2.016,-4.512 -5.472,-4.512 -3.456,0 -6.912,2.112 -7.392,4.512 l -13.44,62.976 c -0.384,2.4 2.112,4.512 5.568,4.512 3.456,0 6.816,-2.112 7.296,-4.512 5.376,-25.248 32.544,-26.976 43.584,-26.976 h 12.288 l -5.76,26.976 c -0.48,2.4 1.92,4.512 5.568,4.512 3.456,0 6.816,-2.112 7.296,-4.512 l 13.44,-62.976 c 0.48,-2.4 -2.016,-4.512 -5.472,-4.512 z"
     id="path1619" /><path
     d="m 284.40631,209.75702 c 2.688,3.648 4.032,8.544 3.744,14.592 h -32.832 l -1.92,9.024 h 39.648 c 3.456,0 6.816,-1.92 7.392,-4.512 2.016,-9.504 0.096,-18.048 -5.664,-25.44 -5.568,-7.008 -13.824,-10.56 -24.576,-10.56 h -31.488 c -3.456,0 -6.912,2.112 -7.392,4.512 l -13.44,63.072 c -0.384,2.304 2.112,4.416 5.568,4.416 4.032,-0.288 6.336,-1.632 7.2,-3.84 l 5.856,-27.744 2.016,-8.928 c 1.248,-5.664 3.456,-16.8 4.704,-22.464 h 25.056 c 6.816,0.288 11.904,3.456 16.128,7.872 z"
     id="path1621" /><path
     d="m 325.20627,207.26102 c 4.992,0 9.792,-3.264 10.656,-7.2 0.864,-3.936 -2.592,-7.2 -7.584,-7.2 -5.184,0 -9.792,3.264 -10.656,7.2 -0.864,3.936 2.4,7.2 7.584,7.2 z m 4.128,11.328 c 0.48,-2.4 -1.824,-4.512 -5.472,-4.512 -3.456,0 -6.816,2.112 -7.296,4.512 l -8.928,41.856 c -0.48,2.304 2.016,4.416 5.472,4.416 4.512,-0.192 6.336,-1.728 7.2,-4.032 z"
     id="path1623" /></g></svg>
